<svg width="174" height="94" viewBox="0 0 174 94" fill="none" xmlns="http://www.w3.org/2000/svg">
<path d="M159.5 0H65.25C57.275 0 50.75 6.50769 50.75 14.4615V79.5385C50.75 83.3739 52.2777 87.0522 54.997 89.7643C57.7162 92.4764 61.4044 94 65.25 94H159.5C167.547 94 174 87.5646 174 79.5385V14.4615C174 10.6261 172.472 6.94775 169.753 4.23569C167.034 1.52362 163.346 0 159.5 0ZM159.5 79.5385H65.25V26.5369L112.375 50.6154L159.5 26.5369V79.5385ZM112.375 38.3954L65.25 14.4615H159.5L112.375 38.3954ZM36.25 79.5385C36.25 80.7677 36.4675 81.9246 36.6125 83.1538H7.25C3.248 83.1538 0 79.9 0 75.9231C0 71.9461 3.248 68.6923 7.25 68.6923H36.25V79.5385ZM21.75 10.8462H36.6125C36.4675 12.0754 36.25 13.2323 36.25 14.4615V25.3077H21.75C17.7625 25.3077 14.5 22.0538 14.5 18.0769C14.5 14.1 17.7625 10.8462 21.75 10.8462ZM7.25 47C7.25 43.0231 10.5125 39.7692 14.5 39.7692H36.25V54.2308H14.5C10.5125 54.2308 7.25 50.9769 7.25 47Z" fill="black"/>
</svg>
