<svg width="225" height="205" viewBox="0 0 225 205" fill="none" xmlns="http://www.w3.org/2000/svg">
<g clip-path="url(#clip0_35_143)">
<path d="M112.9 0.0500488C108.168 5.37052 103.861 11.0547 100.02 17.05C88.534 34.9722 81.5681 55.4136 79.72 76.6201L78.72 74.7701C91.0619 82.2887 102.328 91.4454 112.21 101.99C122.148 91.501 133.421 82.3628 145.74 74.8101L144.82 76.55C143.448 55.4129 136.824 34.9519 125.55 17.0201C121.795 11.0334 117.565 5.35847 112.9 0.0500488ZM112.9 0.0500488C117.83 5.16848 122.335 10.6801 126.37 16.5301C138.599 34.2808 146.199 54.8057 148.48 76.2401L148.61 77.45L147.56 77.9901C134.794 84.4106 122.926 92.4796 112.26 101.99C101.634 92.4495 89.7627 84.396 76.97 78.05L75.84 77.4901L76.01 76.2C79.7496 47.4957 92.6932 20.777 112.9 0.0500488Z" fill="#231F20"/>
<path d="M-1.71307e-05 79.4699C-0.0118286 78.3442 0.339898 77.2447 1.0029 76.3349C1.6659 75.4251 2.60477 74.7535 3.67998 74.4199C4.26733 74.2479 4.87827 74.1703 5.48997 74.1899L6.10998 74.2399L7.35998 74.3199C8.19998 74.3699 9.02998 74.4599 9.85998 74.5299C11.53 74.6899 13.19 74.8599 14.86 75.0899C18.1933 75.5433 21.48 76.1299 24.72 76.8499C31.2211 78.2907 37.5926 80.2641 43.77 82.7499C56.0032 87.7198 67.4022 94.5357 77.57 102.96C82.6168 107.071 87.3716 111.529 91.8 116.3C96.2146 121.027 100.336 126.019 104.14 131.25C106.03 133.87 107.84 136.55 109.57 139.25L110.85 141.31L111.47 142.31L111.78 142.83C111.88 143 111.97 143.2 112.18 143.25C112.279 143.275 112.383 143.266 112.477 143.227C112.57 143.187 112.649 143.118 112.7 143.03L113.01 142.51L113.63 141.51C114.04 140.81 114.48 140.13 114.9 139.45C118.344 133.982 122.115 128.726 126.19 123.71C134.41 113.566 143.916 104.536 154.47 96.8499C165.243 89.065 177.209 83.0805 189.9 79.1299C196.292 77.1669 202.839 75.7485 209.47 74.8899C211.13 74.6699 212.8 74.5099 214.47 74.3599L216.97 74.1699L218.22 74.0999H218.85H219.02C219.579 74.0771 220.139 74.1378 220.68 74.2799C221.843 74.5927 222.871 75.2807 223.603 76.2372C224.336 77.1937 224.732 78.3652 224.73 79.5699V80.5699V81.8299L224.62 84.3399C224.54 86.0099 224.41 87.6799 224.26 89.3399C223.024 102.673 219.669 115.724 214.32 128C208.957 140.171 201.663 151.396 192.72 161.24C192.188 161.872 191.624 162.476 191.03 163.05L189.29 164.8L185.82 168.31C184.6 169.41 183.35 170.48 182.12 171.56L180.27 173.18C179.66 173.72 179.05 174.27 178.39 174.75L174.49 177.75L172.55 179.25L170.55 180.62L166.5 183.36C165.14 184.25 163.71 185.04 162.32 185.88C159.56 187.6 156.63 189.02 153.78 190.57C152.35 191.32 150.85 191.96 149.39 192.66C147.93 193.36 146.46 194.04 144.95 194.66C138.973 197.199 132.833 199.333 126.57 201.05C123.47 201.93 120.33 202.71 117.18 203.39C115.59 203.71 114.01 204.01 112.42 204.28C110.78 204.11 109.23 203.76 107.64 203.46C101.316 202.159 95.0954 200.394 89.03 198.18C82.9586 195.972 77.0477 193.346 71.34 190.32L69.19 189.2L67.1 187.98C65.71 187.15 64.31 186.35 62.93 185.51L58.93 182.82C58.26 182.37 57.57 181.94 56.93 181.46L54.9 179.98C44.3728 172.329 35.0785 163.113 27.34 152.65L24.48 148.65C23.48 147.33 22.7 145.92 21.81 144.55C19.99 141.83 18.47 138.94 16.86 136.09C13.9067 130.265 11.25 124.294 8.89998 118.2C6.40909 112.051 4.30498 105.752 2.59997 99.3399C0.923614 92.8479 0.0504282 86.1747 -1.71307e-05 79.4699ZM9.74998 79.3599C9.88998 85.5299 10.24 91.7299 10.75 97.9799C11.182 104.285 12.1183 110.545 13.55 116.7C16.73 129 22.42 140.57 29.44 151.22C30.28 152.58 31.25 153.85 32.2 155.14L35.06 158.99L38.17 162.64L39.73 164.47L40.51 165.39L41.34 166.25L44.69 169.7C45.26 170.26 45.8 170.87 46.39 171.41L48.17 173.02L51.74 176.26C52.98 177.26 54.25 178.26 55.51 179.26L57.4 180.75C58.04 181.24 58.71 181.68 59.4 182.14L63.4 184.9C64.75 185.77 66.13 186.6 67.49 187.45L69.55 188.72L71.66 189.88C73.08 190.64 74.47 191.47 75.92 192.17L80.26 194.28C83.26 195.56 86.17 196.85 89.26 197.93C95.3017 200.175 101.502 201.966 107.81 203.29C109.38 203.6 110.99 203.96 112.55 204.13C114.14 203.85 115.71 203.52 117.29 203.19C120.43 202.47 123.56 201.7 126.64 200.73C132.815 198.874 138.834 196.534 144.64 193.73C150.376 190.965 155.872 187.727 161.07 184.05C171.583 176.843 180.854 167.974 188.52 157.79L191.26 153.93C192.15 152.63 193.14 151.4 193.92 150.03L196.4 146.03C197.21 144.68 197.91 143.28 198.69 141.92C201.7 136.433 204.268 130.715 206.37 124.82C210.619 113.111 213.279 100.886 214.28 88.4699C214.4 86.9299 214.51 85.3799 214.57 83.8299L214.66 81.5099V80.3499V79.5399C214.663 80.5399 214.994 81.5114 215.603 82.3046C216.212 83.0979 217.065 83.669 218.03 83.9299C218.476 84.0521 218.938 84.1027 219.4 84.0799H219.26H218.68L217.52 84.1299L215.2 84.2799C213.65 84.3999 212.11 84.5299 210.57 84.7099C207.47 84.9899 204.4 85.4299 201.33 85.9399C198.26 86.4499 195.22 87.0799 192.17 87.7299C179.883 90.4809 168.025 94.8843 156.92 100.82C145.629 106.897 135.421 114.801 126.71 124.21C125.61 125.38 124.57 126.61 123.51 127.82C122.45 129.03 121.45 130.3 120.51 131.59C118.51 134.11 116.68 136.77 114.93 139.48C114.5 140.16 114.05 140.83 113.64 141.48L113 142.48L112.69 143C112.634 143.085 112.553 143.15 112.458 143.188C112.363 143.225 112.259 143.233 112.16 143.21C111.95 143.16 111.86 142.96 111.76 142.79L111.44 142.27L110.81 141.27L109.52 139.27C107.77 136.56 105.92 133.91 103.94 131.37C102.947 130.103 101.947 128.847 100.94 127.6C99.87 126.39 98.85 125.15 97.74 123.98C96.63 122.81 95.56 121.61 94.4 120.5C93.24 119.39 92.11 118.24 90.93 117.16C86.2028 112.835 81.1366 108.896 75.78 105.38C65.1394 98.4767 53.5375 93.1829 41.35 89.6699C35.3406 87.9339 29.2287 86.5746 23.05 85.5999C19.97 85.1199 16.88 84.6999 13.78 84.4499C12.24 84.2799 10.69 84.1799 9.13998 84.0799C8.35998 84.0799 7.58998 83.9799 6.80998 83.9599H5.64998H5.06997C5.57699 83.9788 6.08369 83.9147 6.56997 83.7699C7.49942 83.4821 8.31152 82.9027 8.88605 82.1175C9.46057 81.3322 9.767 80.3829 9.75998 79.4099L9.74998 79.3599Z" fill="#231F20"/>
</g>
<defs>
<clipPath id="clip0_35_143">
<rect width="224.72" height="204.25" fill="white"/>
</clipPath>
</defs>
</svg>
